<svg height="512" viewBox="0 0 64 64" width="512" xmlns="http://www.w3.org/2000/svg"><g id="Tools_box" data-name="Tools box"><path d="m59 33h-54a2 2 0 0 0 -2 2v24a2 2 0 0 0 2 2h54a2 2 0 0 0 2-2v-24a2 2 0 0 0 -2-2zm-18 8h-18a2 2 0 0 1 0-4h18a2 2 0 0 1 0 4z" fill="#c49a6c"/><path d="m11 57a2 2 0 0 1 -2-2v-22h-4a2 2 0 0 0 -2 2v24a2 2 0 0 0 2 2h54a2 2 0 0 0 2-2v-2z" fill="#a97c50"/><path d="m57 7h-50a2 2 0 0 0 -2 2v24h4v-22h46v22h4v-24a2 2 0 0 0 -2-2z" fill="#8b5e3c"/><g fill="#754c29"><path d="m9 7h-2a2 2 0 0 0 -2 2v24h2v-24a2 2 0 0 1 2-2z"/><path d="m55 11h2v22h-2z"/><path d="m41 5a2 2 0 0 0 -2-2h-14a2 2 0 0 0 -2 2v2h18z"/></g><path d="m45 23v-2h3v1a1 1 0 0 0 1 1h2v-8h-2a1 1 0 0 0 -1 1v1h-3v-1a1 1 0 0 0 -1-1h-5a8 8 0 0 0 -8 8v2l2.8-3.5a4 4 0 0 1 3.122-1.5h.078v3z" fill="#2488ff"/><path d="m39 23h4v10h-4z" fill="#8b5e3c"/><path d="m23.906 26.806a6.994 6.994 0 0 0 -.906-12.126v6.32l-3 2-3-2v-6.32a6.994 6.994 0 0 0 -.906 12.126 2.01 2.01 0 0 1 .906 1.666v4.528h6v-4.528a2.01 2.01 0 0 1 .906-1.666z" fill="#ffcd00"/><path d="m18.094 24.806a6.993 6.993 0 0 1 -1.942-9.65 6.994 6.994 0 0 0 -.058 11.65 2.01 2.01 0 0 1 .906 1.666v4.528h2v-6.528a2.01 2.01 0 0 0 -.906-1.666z" fill="#ebbf00"/><path d="m39 23h2v10h-2z" fill="#754c29"/></g></svg>